<svg width="634" height="137" viewBox="0 0 634 137" fill="none" xmlns="http://www.w3.org/2000/svg">
<path d="M305.721 1.48377H320.117L334.849 42.0691L349.543 1.48377H363.94L343.368 56.4691H326.293L305.721 1.48377Z" fill="#111130"/>
<path d="M363.007 1.48377H401.659V12.2009H377.329V22.4393H400.208V33.1565H377.329V45.752H402.477V56.4691H363.007V1.48377Z" fill="#111130"/>
<path d="M442.419 3.21471V14.8526C439.368 13.5022 436.392 12.4833 433.49 11.7958C430.589 11.1083 427.848 10.7646 425.269 10.7646C421.847 10.7646 419.317 11.2311 417.68 12.1641C416.043 13.0971 415.225 14.5457 415.225 16.5099C415.225 17.983 415.77 19.137 416.862 19.9718C417.978 20.782 419.987 21.4818 422.888 22.071L428.989 23.2864C435.164 24.514 439.554 26.38 442.158 28.8844C444.762 31.3887 446.064 34.9488 446.064 39.5647C446.064 45.6292 444.242 50.1468 440.596 53.1177C436.975 56.064 431.432 57.5372 423.967 57.5372C420.445 57.5372 416.911 57.2057 413.365 56.5428C409.818 55.8799 406.272 54.8978 402.725 53.5965V41.6271C406.272 43.4931 409.694 44.9049 412.993 45.8624C416.316 46.7954 419.515 47.2619 422.591 47.2619C425.716 47.2619 428.109 46.7463 429.77 45.7151C431.432 44.6839 432.263 43.2108 432.263 41.2957C432.263 39.577 431.692 38.2511 430.552 37.3182C429.436 36.3852 427.191 35.5504 423.818 34.8138L418.275 33.5984C412.72 32.4199 408.653 30.5417 406.073 27.9636C403.519 25.3856 402.242 21.9115 402.242 17.5411C402.242 12.0659 404.027 7.85514 407.599 4.90883C411.17 1.96253 416.304 0.48938 423 0.48938C426.05 0.48938 429.188 0.722628 432.412 1.18913C435.636 1.63107 438.971 2.30627 442.419 3.21471Z" fill="#111130"/>
<path d="M447.956 1.48377H471.727C478.795 1.48377 484.214 3.04286 487.984 6.16103C491.778 9.25464 493.675 13.6741 493.675 19.4194C493.675 25.1892 491.778 29.6332 487.984 32.7514C484.214 35.845 478.795 37.3918 471.727 37.3918H462.278V56.4691H447.956V1.48377ZM462.278 11.759V27.1166H470.202C472.979 27.1166 475.125 26.4537 476.637 25.1278C478.15 23.7775 478.907 21.8746 478.907 19.4194C478.907 16.9641 478.15 15.0736 476.637 13.7478C475.125 12.4219 472.979 11.759 470.202 11.759H462.278Z" fill="#111130"/>
<path d="M493.058 1.48377H531.71V12.2009H507.381V22.4393H530.259V33.1565H507.381V45.752H532.529V56.4691H493.058V1.48377Z" fill="#111130"/>
<path d="M554.167 25.8644C557.168 25.8644 559.314 25.312 560.603 24.2071C561.918 23.1023 562.575 21.2854 562.575 18.7565C562.575 16.2521 561.918 14.4598 560.603 13.3795C559.314 12.2992 557.168 11.759 554.167 11.759H548.141V25.8644H554.167ZM548.141 35.6609V56.4691H533.819V1.48377H555.693C563.009 1.48377 568.366 2.69912 571.763 5.12982C575.186 7.56052 576.897 11.403 576.897 16.6572C576.897 20.291 576.004 23.2741 574.219 25.6066C572.458 27.9391 569.792 29.6578 566.221 30.7626C568.18 31.2046 569.928 32.2112 571.466 33.7826C573.028 35.3294 574.603 37.6865 576.19 40.8537L583.965 56.4691H568.713L561.942 42.8057C560.578 40.0558 559.19 38.1775 557.776 37.1709C556.387 36.1642 554.527 35.6609 552.196 35.6609H548.141Z" fill="#111130"/>
<path d="M615.437 46.4517H593.042L589.508 56.4691H575.111L595.683 1.48377H612.758L633.33 56.4691H618.933L615.437 46.4517ZM596.613 36.2501H611.828L604.239 14.3738L596.613 36.2501Z" fill="#111130"/>
<path d="M197.141 135.673L64.463 4.32042H2.75042L0.664062 6.38591L131.325 135.744H197.005V135.806L197.141 135.673Z" fill="#111130"/>
<path d="M273.991 135.673L141.313 4.32042H79.5981L77.5117 6.38591L208.174 135.744H273.855V135.806L273.991 135.673Z" fill="#111130"/>
<path d="M273.99 135.497H227.398V4.01327H273.99V135.497Z" fill="#6EBE44"/>
<path d="M322.113 99.8608V94.4009H317.575V92.1406H324.864V100.868C323.791 101.622 322.609 102.194 321.316 102.584C320.023 102.965 318.643 103.156 317.176 103.156C313.967 103.156 311.455 102.23 309.639 100.378C307.833 98.5174 306.93 95.9304 306.93 92.6172C306.93 89.2949 307.833 86.7079 309.639 84.8561C311.455 82.9953 313.967 82.0649 317.176 82.0649C318.515 82.0649 319.785 82.2283 320.986 82.555C322.196 82.8818 323.31 83.3629 324.328 83.9983V86.9257C323.301 86.0634 322.21 85.4144 321.054 84.9787C319.899 84.543 318.684 84.3251 317.41 84.3251C314.897 84.3251 313.009 85.0195 311.743 86.4083C310.487 87.7972 309.859 89.8668 309.859 92.6172C309.859 95.3585 310.487 97.4236 311.743 98.8124C313.009 100.201 314.897 100.896 317.41 100.896C318.391 100.896 319.267 100.814 320.037 100.651C320.807 100.478 321.499 100.215 322.113 99.8608Z" fill="#231F20"/>
<path d="M330.336 82.4325H333.114V100.446H343.113V102.761H330.336V82.4325Z" fill="#231F20"/>
<path d="M351.064 84.2978C349.047 84.2978 347.443 85.0422 346.251 86.5308C345.068 88.0195 344.476 90.0483 344.476 92.6171C344.476 95.1769 345.068 97.2012 346.251 98.6898C347.443 100.179 349.047 100.923 351.064 100.923C353.081 100.923 354.677 100.179 355.85 98.6898C357.033 97.2012 357.625 95.1769 357.625 92.6171C357.625 90.0483 357.033 88.0195 355.85 86.5308C354.677 85.0422 353.081 84.2978 351.064 84.2978ZM351.064 82.0648C353.943 82.0648 356.245 83.0225 357.969 84.9378C359.692 86.844 360.554 89.4038 360.554 92.6171C360.554 95.8214 359.692 98.3812 357.969 100.297C356.245 102.203 353.943 103.156 351.064 103.156C348.176 103.156 345.865 102.203 344.133 100.297C342.409 98.3903 341.547 95.8305 341.547 92.6171C341.547 89.4038 342.409 86.844 344.133 84.9378C345.865 83.0225 348.176 82.0648 351.064 82.0648Z" fill="#231F20"/>
<path d="M368.154 93.0529V100.501H372.61C374.105 100.501 375.21 100.197 375.925 99.5885C376.649 98.9713 377.011 98.0318 377.011 96.77C377.011 95.4992 376.649 94.5642 375.925 93.9651C375.21 93.357 374.105 93.0529 372.61 93.0529H368.154ZM368.154 84.6927V90.8199H372.266C373.623 90.8199 374.632 90.5702 375.292 90.071C375.962 89.5627 376.296 88.7911 376.296 87.7563C376.296 86.7306 375.962 85.9635 375.292 85.4552C374.632 84.9469 373.623 84.6927 372.266 84.6927H368.154ZM365.376 82.4325H372.473C374.591 82.4325 376.223 82.8682 377.369 83.7396C378.515 84.611 379.088 85.8501 379.088 87.4567C379.088 88.7003 378.795 89.6898 378.208 90.425C377.621 91.1603 376.759 91.6187 375.622 91.8002C376.988 92.0907 378.047 92.6989 378.799 93.6247C379.56 94.5416 379.941 95.6898 379.941 97.0696C379.941 98.885 379.317 100.287 378.07 101.277C376.823 102.266 375.049 102.761 372.748 102.761H365.376V82.4325Z" fill="#231F20"/>
<path d="M389.703 85.1421L385.934 95.2587H393.485L389.703 85.1421ZM388.135 82.4325H391.284L399.11 102.761H396.222L394.351 97.5461H385.095L383.225 102.761H380.295L388.135 82.4325Z" fill="#231F20"/>
<path d="M400.585 82.4325H403.363V100.446H413.362V102.761H400.585V82.4325Z" fill="#231F20"/>
<path d="M431.166 93.2299C431.762 93.4296 432.339 93.8562 432.899 94.5098C433.467 95.1633 434.036 96.062 434.604 97.2057L437.424 102.761H434.439L431.812 97.5461C431.134 96.1845 430.474 95.2813 429.832 94.8366C429.199 94.3918 428.333 94.1694 427.232 94.1694H424.207V102.761H421.428V82.4325H427.7C430.047 82.4325 431.799 82.9181 432.954 83.8894C434.109 84.8607 434.687 86.3266 434.687 88.2873C434.687 89.5672 434.384 90.6293 433.779 91.4734C433.183 92.3176 432.312 92.9031 431.166 93.2299ZM424.207 84.6927V91.9091H427.7C429.039 91.9091 430.047 91.6051 430.726 90.9969C431.413 90.3796 431.757 89.4764 431.757 88.2873C431.757 87.0982 431.413 86.2041 430.726 85.605C430.047 84.9968 429.039 84.6927 427.7 84.6927H424.207Z" fill="#231F20"/>
<path d="M438.61 82.4325H451.593V84.7472H441.388V90.7654H451.167V93.0801H441.388V100.446H451.841V102.761H438.61V82.4325Z" fill="#231F20"/>
<path d="M460.686 85.1421L456.918 95.2587H464.468L460.686 85.1421ZM459.118 82.4325H462.268L470.094 102.761H467.205L465.335 97.5461H456.079L454.208 102.761H451.279L459.118 82.4325Z" fill="#231F20"/>
<path d="M486.238 83.9983V86.8985C485.303 86.0361 484.303 85.3917 483.24 84.965C482.185 84.5384 481.062 84.3251 479.87 84.3251C477.523 84.3251 475.726 85.0376 474.479 86.4628C473.232 87.8788 472.608 89.9303 472.608 92.6171C472.608 95.2949 473.232 97.3464 474.479 98.7715C475.726 100.188 477.523 100.896 479.87 100.896C481.062 100.896 482.185 100.682 483.24 100.256C484.303 99.829 485.303 99.1845 486.238 98.3222V101.195C485.266 101.849 484.234 102.339 483.143 102.666C482.061 102.992 480.915 103.156 479.705 103.156C476.597 103.156 474.149 102.216 472.361 100.337C470.573 98.4493 469.679 95.8759 469.679 92.6171C469.679 89.3493 470.573 86.7759 472.361 84.8969C474.149 83.0089 476.597 82.0648 479.705 82.0648C480.934 82.0648 482.089 82.2282 483.171 82.555C484.262 82.8727 485.284 83.3538 486.238 83.9983Z" fill="#231F20"/>
<path d="M491.846 82.4325H494.624V90.7654H504.719V82.4325H507.497V102.761H504.719V93.0801H494.624V102.761H491.846V82.4325Z" fill="#231F20"/>
<path d="M308.113 115.895H310.891V133.909H320.889V136.223H308.113V115.895Z" fill="#231F20"/>
<path d="M328.84 117.76C326.823 117.76 325.219 118.505 324.027 119.993C322.844 121.482 322.253 123.511 322.253 126.08C322.253 128.639 322.844 130.664 324.027 132.152C325.219 133.641 326.823 134.385 328.84 134.385C330.858 134.385 332.453 133.641 333.627 132.152C334.809 130.664 335.401 128.639 335.401 126.08C335.401 123.511 334.809 121.482 333.627 119.993C332.453 118.505 330.858 117.76 328.84 117.76ZM328.84 115.527C331.72 115.527 334.021 116.485 335.745 118.4C337.468 120.306 338.33 122.866 338.33 126.08C338.33 129.284 337.468 131.844 335.745 133.759C334.021 135.665 331.72 136.618 328.84 136.618C325.952 136.618 323.642 135.665 321.909 133.759C320.185 131.853 319.323 129.293 319.323 126.08C319.323 122.866 320.185 120.306 321.909 118.4C323.642 116.485 325.952 115.527 328.84 115.527Z" fill="#231F20"/>
<path d="M358.529 117.461V120.361C357.593 119.499 356.594 118.854 355.53 118.427C354.476 118.001 353.353 117.788 352.161 117.788C349.814 117.788 348.016 118.5 346.769 119.925C345.522 121.341 344.899 123.393 344.899 126.08C344.899 128.757 345.522 130.809 346.769 132.234C348.016 133.65 349.814 134.358 352.161 134.358C353.353 134.358 354.476 134.145 355.53 133.718C356.594 133.291 357.593 132.647 358.529 131.785V134.658C357.557 135.311 356.525 135.801 355.434 136.128C354.352 136.455 353.206 136.618 351.996 136.618C348.887 136.618 346.439 135.679 344.651 133.8C342.863 131.912 341.97 129.338 341.97 126.08C341.97 122.812 342.863 120.238 344.651 118.359C346.439 116.471 348.887 115.527 351.996 115.527C353.224 115.527 354.38 115.691 355.462 116.017C356.553 116.335 357.575 116.816 358.529 117.461Z" fill="#231F20"/>
<path d="M370.718 118.604L366.95 128.721H374.5L370.718 118.604ZM369.15 115.895H372.3L380.125 136.223H377.237L375.367 131.008H366.111L364.24 136.223H361.311L369.15 115.895Z" fill="#231F20"/>
<path d="M381.6 115.895H384.378V133.909H394.377V136.223H381.6V115.895Z" fill="#231F20"/>
<path d="M402.444 115.895H415.427V118.21H405.222V124.228H415.001V126.542H405.222V133.909H415.675V136.223H402.444V115.895Z" fill="#231F20"/>
<path d="M416.382 115.895H419.367L424.469 123.452L429.599 115.895H432.584L425.982 125.657L433.024 136.223H430.039L424.263 127.577L418.445 136.223H415.447L422.777 125.372L416.382 115.895Z" fill="#231F20"/>
<path d="M436.487 118.155V125.794H439.981C441.274 125.794 442.273 125.462 442.979 124.8C443.685 124.137 444.038 123.193 444.038 121.968C444.038 120.751 443.685 119.812 442.979 119.149C442.273 118.486 441.274 118.155 439.981 118.155H436.487ZM433.709 115.895H439.981C442.282 115.895 444.02 116.412 445.193 117.447C446.376 118.473 446.967 119.98 446.967 121.968C446.967 123.974 446.376 125.49 445.193 126.515C444.02 127.541 442.282 128.054 439.981 128.054H436.487V136.223H433.709V115.895Z" fill="#231F20"/>
<path d="M450.328 115.895H463.311V118.21H453.106V124.228H462.885V126.542H453.106V133.909H463.559V136.223H450.328V115.895Z" fill="#231F20"/>
<path d="M474.994 126.692C475.59 126.892 476.167 127.319 476.727 127.972C477.295 128.626 477.864 129.524 478.432 130.668L481.252 136.223H478.267L475.64 131.008C474.962 129.647 474.301 128.744 473.66 128.299C473.027 127.854 472.161 127.632 471.06 127.632H468.034V136.223H465.256V115.895H471.528C473.875 115.895 475.626 116.381 476.782 117.352C477.937 118.323 478.515 119.789 478.515 121.75C478.515 123.03 478.212 124.092 477.607 124.936C477.011 125.78 476.14 126.365 474.994 126.692ZM468.034 118.155V125.372H471.528C472.867 125.372 473.875 125.067 474.554 124.459C475.241 123.842 475.585 122.939 475.585 121.75C475.585 120.561 475.241 119.666 474.554 119.067C473.875 118.459 472.867 118.155 471.528 118.155H468.034Z" fill="#231F20"/>
<path d="M479.169 115.895H496.539V118.21H489.25V136.223H486.458V118.21H479.169V115.895Z" fill="#231F20"/>
<path d="M497.226 115.895H500.004V136.223H497.226V115.895Z" fill="#231F20"/>
<path d="M515.732 116.562V119.244C514.677 118.745 513.683 118.373 512.747 118.128C511.812 117.883 510.909 117.76 510.038 117.76C508.525 117.76 507.356 118.051 506.531 118.632C505.715 119.213 505.307 120.039 505.307 121.11C505.307 122.008 505.577 122.689 506.118 123.152C506.668 123.606 507.704 123.974 509.227 124.255L510.904 124.595C512.977 124.986 514.503 125.676 515.484 126.665C516.475 127.645 516.97 128.962 516.97 130.614C516.97 132.583 516.3 134.077 514.962 135.093C513.632 136.11 511.679 136.618 509.103 136.618C508.131 136.618 507.095 136.509 505.994 136.292C504.903 136.074 503.771 135.751 502.597 135.325V132.493C503.725 133.119 504.83 133.591 505.912 133.909C506.994 134.226 508.057 134.385 509.103 134.385C510.689 134.385 511.913 134.077 512.775 133.459C513.637 132.842 514.068 131.962 514.068 130.818C514.068 129.819 513.756 129.039 513.133 128.476C512.518 127.913 511.505 127.491 510.093 127.21L508.401 126.883C506.329 126.474 504.83 125.834 503.904 124.963C502.978 124.092 502.515 122.88 502.515 121.328C502.515 119.53 503.152 118.114 504.427 117.079C505.71 116.045 507.475 115.527 509.722 115.527C510.684 115.527 511.665 115.614 512.665 115.786C513.664 115.958 514.687 116.217 515.732 116.562Z" fill="#231F20"/>
<path d="M519.506 115.895H532.489V118.21H522.284V124.228H532.063V126.542H522.284V133.909H532.737V136.223H519.506V115.895Z" fill="#231F20"/>
</svg>
